<svg viewBox="0 0 300 200" xmlns="http://www.w3.org/2000/svg">
  <defs>
    <linearGradient id="storeGrad" x1="0%" y1="0%" x2="100%" y2="100%">
      <stop offset="0%" style="stop-color:#00d9ff;stop-opacity:0.2" />
      <stop offset="100%" style="stop-color:#0099cc;stop-opacity:0.2" />
    </linearGradient>
  </defs>
  <rect width="300" height="200" fill="url(#storeGrad)"/>
  
  <!-- Vitrine de loja -->
  <rect x="50" y="40" width="200" height="120" rx="8" fill="none" stroke="#00d9ff" stroke-width="2.5"/>
  
  <!-- Prateleiras -->
  <line x1="60" y1="70" x2="240" y2="70" stroke="#c0a962" stroke-width="2" opacity="0.6"/>
  <line x1="60" y1="105" x2="240" y2="105" stroke="#c0a962" stroke-width="2" opacity="0.6"/>
  
  <!-- Produtos -->
  <rect x="75" y="50" width="20" height="18" fill="#c0a962" opacity="0.7"/>
  <rect x="105" y="48" width="20" height="20" fill="#00d9ff" opacity="0.7"/>
  <rect x="135" y="50" width="20" height="18" fill="#c0a962" opacity="0.7"/>
  <rect x="165" y="49" width="20" height="19" fill="#00d9ff" opacity="0.7"/>
  <rect x="195" y="50" width="20" height="18" fill="#c0a962" opacity="0.7"/>
  
  <!-- Segunda linha -->
  <rect x="75" y="80" width="20" height="22" fill="#00d9ff" opacity="0.7"/>
  <rect x="105" y="82" width="20" height="20" fill="#c0a962" opacity="0.7"/>
  <rect x="135" y="80" width="20" height="22" fill="#00d9ff" opacity="0.7"/>
  <rect x="165" y="83" width="20" height="19" fill="#c0a962" opacity="0.7"/>
  <rect x="195" y="80" width="20" height="22" fill="#00d9ff" opacity="0.7"/>
  
  <!-- Carrinho de compras -->
  <path d="M 140 140 L 135 155 L 160 155 Z" fill="none" stroke="#00d9ff" stroke-width="2.5" stroke-linecap="round"/>
  <line x1="122" y1="140" x2="158" y2="140" stroke="#00d9ff" stroke-width="2" opacity="0.6"/>
  
  <!-- Rodas -->
  <circle cx="138" cy="160" r="4" fill="none" stroke="#c0a962" stroke-width="1.5" opacity="0.7"/>
  <circle cx="157" cy="160" r="4" fill="none" stroke="#c0a962" stroke-width="1.5" opacity="0.7"/>
</svg>