<svg viewBox="0 0 300 200" xmlns="http://www.w3.org/2000/svg">
  <defs>
    <linearGradient id="healthGrad" x1="0%" y1="0%" x2="100%" y2="100%">
      <stop offset="0%" style="stop-color:#00d9ff;stop-opacity:0.2" />
      <stop offset="100%" style="stop-color:#0099cc;stop-opacity:0.2" />
    </linearGradient>
  </defs>
  <rect width="300" height="200" fill="url(#healthGrad)"/>
  
  <!-- Coração batendo (EKG) -->
  <path d="M 50 100 L 80 100 L 95 60 L 110 140 L 125 100 L 150 100 L 200 100 L 230 100 L 250 100" fill="none" stroke="#c0a962" stroke-width="3" stroke-linecap="round" stroke-linejoin="round" opacity="0.8"/>
  
  <!-- Coração -->
  <path d="M 110 75 Q 100 65, 90 75 Q 80 85, 95 95 Q 110 105, 110 95 Q 110 105, 125 95 Q 140 85, 130 75 Q 120 65, 110 75 Z" fill="none" stroke="#c0a962" stroke-width="2" opacity="0.8"/>
  
  <!-- Pulso/ondas -->
  <circle cx="110" cy="75" r="15" fill="none" stroke="#00d9ff" stroke-width="1" opacity="0.4"/>
  <circle cx="110" cy="75" r="25" fill="none" stroke="#00d9ff" stroke-width="0.5" opacity="0.2"/>
  
  <!-- Comprimidos/cápsulas -->
  <rect x="180" y="50" width="15" height="25" rx="7" fill="none" stroke="#00d9ff" stroke-width="1.5"/>
  <line x1="187" y1="50" x2="187" y2="75" stroke="#00d9ff" stroke-width="1" opacity="0.6"/>
  
  <ellipse cx="220" cy="55" rx="8" ry="12" fill="none" stroke="#c0a962" stroke-width="1.5"/>
  <line x1="212" y1="55" x2="228" y2="55" stroke="#c0a962" stroke-width="0.5" opacity="0.6"/>
</svg>