<svg viewBox="0 0 300 200" xmlns="http://www.w3.org/2000/svg">
  <defs>
    <linearGradient id="iotGrad" x1="0%" y1="0%" x2="100%" y2="100%">
      <stop offset="0%" style="stop-color:#00d9ff;stop-opacity:0.2" />
      <stop offset="100%" style="stop-color:#0099cc;stop-opacity:0.2" />
    </linearGradient>
  </defs>
  <rect width="300" height="200" fill="url(#iotGrad)"/>
  
  <!-- Máquina/engrenagem central -->
  <circle cx="150" cy="100" r="25" fill="none" stroke="#00d9ff" stroke-width="2.5" opacity="0.8"/>
  <path d="M 150 75 L 155 70 M 150 75 L 145 70" fill="none" stroke="#00d9ff" stroke-width="2" opacity="0.6"/>
  <path d="M 175 100 L 182 98 M 175 100 L 182 102" fill="none" stroke="#00d9ff" stroke-width="2" opacity="0.6"/>
  <path d="M 150 125 L 155 130 M 150 125 L 145 130" fill="none" stroke="#00d9ff" stroke-width="2" opacity="0.6"/>
  <path d="M 125 100 L 118 98 M 125 100 L 118 102" fill="none" stroke="#00d9ff" stroke-width="2" opacity="0.6"/>
  
  <!-- Sensores conectados -->
  <circle cx="80" cy="50" r="8" fill="none" stroke="#c0a962" stroke-width="2" opacity="0.7"/>
  <line x1="80" y1="50" x2="120" y2="80" stroke="#c0a962" stroke-width="1.5" opacity="0.5"/>
  
  <circle cx="220" cy="60" r="8" fill="none" stroke="#c0a962" stroke-width="2" opacity="0.7"/>
  <line x1="220" y1="60" x2="180" y2="85" stroke="#c0a962" stroke-width="1.5" opacity="0.5"/>
  
  <circle cx="100" cy="150" r="8" fill="none" stroke="#00d9ff" stroke-width="2" opacity="0.7"/>
  <line x1="100" y1="150" x2="130" y2="120" stroke="#00d9ff" stroke-width="1.5" opacity="0.5"/>
  
  <circle cx="200" cy="150" r="8" fill="none" stroke="#00d9ff" stroke-width="2" opacity="0.7"/>
  <line x1="200" y1="150" x2="170" y2="120" stroke="#00d9ff" stroke-width="1.5" opacity="0.5"/>
  
  <!-- Fluxo de dados -->
  <circle cx="150" cy="55" r="4" fill="#00d9ff" opacity="0.6"/>
  <circle cx="150" cy="145" r="4" fill="#00d9ff" opacity="0.6"/>
</svg>